<svg width="70" height="70" viewBox="0 0 70 70" fill="none" xmlns="http://www.w3.org/2000/svg">
<circle cx="35" cy="35" r="35" fill="#F98F41"/>
<path fill-rule="evenodd" clip-rule="evenodd" d="M37.9653 18.1708C35.4413 18.539 33.1931 20.2453 32.3031 22.4685C31.6982 23.9791 31.4864 25.6024 31.4793 28.7792L31.4736 31.288H28.7368H26V34.4809V37.6739H28.7368H31.4736V45.3369V53H34.849H38.2244V45.3369V37.6739H40.8286H43.4327L43.8978 34.4809L44.3627 31.288H41.2936H38.2244L38.2255 29.1442C38.2275 24.8027 39.06 23.8192 42.7401 23.8114L44.6103 23.8074V21.0963V18.3852L42.7792 18.177C40.7187 17.9428 39.5399 17.9413 37.9653 18.1708Z" fill="white"/>
</svg>
