<svg width="70" height="70" viewBox="0 0 70 70" fill="none" xmlns="http://www.w3.org/2000/svg">
<circle cx="35" cy="35" r="35" fill="#F98F41"/>
<path fill-rule="evenodd" clip-rule="evenodd" d="M29.0812 18.1067C27.3668 18.1967 25.59 18.3837 25.1328 18.5221C22.5132 19.3154 20.2466 21.2326 19.093 23.6305C18.5028 24.8579 18.3374 25.5147 18.1489 27.3811C17.859 30.2501 18.0253 44.2095 18.3649 45.5171C19.2578 48.9555 21.8752 51.565 25.389 52.5201C26.9786 52.9521 38.4029 53.1672 42.64 52.8451C45.332 52.6404 45.7424 52.5544 47.1657 51.8967C49.9782 50.5972 51.9015 48.1284 52.5743 44.9537C53.0126 42.8856 53.0018 28.0895 52.5604 25.9915C51.7583 22.1777 48.9445 19.3035 45.1651 18.4369C43.539 18.0641 33.7287 17.8628 29.0812 18.1067ZM42.8459 21.4242C46.0063 21.7301 47.797 22.8317 48.867 25.1282C49.2824 26.0203 49.4171 26.7728 49.591 29.1805C49.8786 33.1582 49.6658 43.4014 49.2654 44.8604C48.5694 47.3963 46.8209 48.9823 44.1661 49.4858C43.5369 49.6051 39.7111 49.6972 35.3801 49.6972C26.9333 49.6972 25.6621 49.5607 24.0998 48.4865C23.0713 47.7791 22.0017 46.3976 21.695 45.3799C21.1545 43.5865 20.9211 34.4709 21.2752 28.9831C21.4219 26.7094 21.5416 26.0571 21.981 25.1386C23.1287 22.7388 24.7278 21.7249 27.8343 21.4275C30.043 21.216 40.6702 21.2137 42.8459 21.4242ZM43.9596 24.3909C43.6849 24.5368 43.2678 24.9152 43.0325 25.2321C42.6321 25.7714 42.6242 25.8641 42.9085 26.6868C43.1385 27.3518 43.3979 27.656 43.9756 27.9386C44.673 28.2794 44.8037 28.2846 45.4897 27.9981C46.8739 27.4195 47.1588 25.6889 46.0371 24.6735C45.529 24.2136 44.5456 24.08 43.9596 24.3909ZM32.2326 27.1296C29.8131 28.1427 28.3439 29.5236 27.2371 31.8255C26.629 33.09 26.5879 33.3224 26.5933 35.4622C26.601 38.4104 27.0395 39.6061 28.8048 41.4933C30.7229 43.5437 32.8295 44.5019 35.4194 44.5019C38.0094 44.5019 40.1159 43.5437 42.034 41.4933C43.7994 39.6061 44.2378 38.4104 44.2455 35.4622C44.2509 33.3141 44.211 33.0913 43.5845 31.7686C42.7086 29.9193 41.0662 28.277 39.2169 27.401C37.9514 26.8015 37.589 26.7286 35.6272 26.6781C33.7066 26.6286 33.3 26.6826 32.2326 27.1296ZM37.9584 30.3646C40.0197 31.4259 41.1223 33.2449 41.1111 35.5661C41.086 40.7963 34.8251 43.1846 31.152 39.3655C29.2703 37.4085 29.2535 33.6646 31.1175 31.6474C31.7264 30.9883 32.9249 30.2366 33.7858 29.9735C34.8619 29.6446 36.9383 29.8393 37.9584 30.3646Z" fill="white"/>
</svg>
