<svg width="70" height="70" viewBox="0 0 70 70" fill="none" xmlns="http://www.w3.org/2000/svg">
<circle cx="35" cy="35" r="35" fill="#F98F41"/>
<path fill-rule="evenodd" clip-rule="evenodd" d="M20.3602 18.2923C17.8891 19.3953 17.1926 23.0358 19.068 25.0464C20.412 26.4871 22.956 26.7628 24.5726 25.6427C27.1059 23.8871 26.9174 19.8991 24.234 18.4821C23.1783 17.9245 21.3815 17.8364 20.3602 18.2923ZM41.5242 29.3819C41.0177 29.5593 40.2677 29.9166 39.8574 30.1762C39.0457 30.6896 37.7575 31.9338 37.7575 32.2045C37.7575 32.2972 37.6637 32.3732 37.5491 32.3732C37.4316 32.3732 37.3408 31.783 37.3408 31.019V29.6647H33.7988H30.2568V41.3323V53H33.903H37.5491V46.7778C37.5491 40.221 37.676 38.8855 38.4415 37.3878C39.3007 35.7071 41.5613 35.0231 43.5832 35.8321C45.4319 36.5717 45.6748 37.7922 45.6748 46.343V53H49.321H52.9671L52.9654 45.2389C52.9638 37.0641 52.8444 35.5608 52.037 33.5619C51.0915 31.2204 50.0731 30.2362 47.806 29.4724C46.2059 28.9334 42.94 28.8863 41.5242 29.3819ZM18.3808 41.3323V53H22.1311H25.8815V41.3323V29.6647H22.1311H18.3808V41.3323Z" fill="white"/>
</svg>
