<svg width="45" height="60" viewBox="0 0 45 60" fill="none" xmlns="http://www.w3.org/2000/svg">
<path fill-rule="evenodd" clip-rule="evenodd" d="M19.1573 0.289143C14.2689 0.983083 10.1687 3.06176 6.56359 6.67445C2.76704 10.4786 0.889188 14.2914 0.149363 19.6978C-0.640748 25.4705 1.6727 32.2509 7.83267 42.2162C11.3772 47.9503 18.5102 57.6693 20.2466 59.1304C21.675 60.3322 23.3357 60.2863 24.7952 59.0053C27.0489 57.0262 35.2301 45.3534 39.2051 38.4448C43.8958 30.2929 45.482 24.9369 44.7629 19.6811C44.025 14.2896 42.1412 10.4701 38.3509 6.6798C34.599 2.92756 30.7531 1.01451 25.4989 0.286C22.7445 -0.0961693 21.8689 -0.0955406 19.1573 0.289143ZM24.7779 15.4128C26.5043 15.9229 29.1078 18.5264 29.6179 20.2528C30.4885 23.1995 29.8747 25.5488 27.6536 27.7698C24.474 30.9494 20.4405 30.9494 17.2609 27.7698C14.0813 24.5902 14.0813 20.5602 17.2609 17.3736C19.4656 15.1642 21.8403 14.5448 24.7779 15.4128Z" fill="#F98F41"/>
</svg>
