<svg width="291" height="61" viewBox="0 0 291 61" fill="none" xmlns="http://www.w3.org/2000/svg">
<path d="M13.3477 31.958C14.3197 31.958 15.1477 31.844 15.8317 31.616C16.5277 31.388 17.0917 31.076 17.5237 30.68C17.9677 30.284 18.2917 29.816 18.4957 29.276C18.6997 28.724 18.8017 28.124 18.8017 27.476C18.8017 26.192 18.3577 25.184 17.4697 24.452C16.5817 23.708 15.2077 23.336 13.3477 23.336H7.94773V31.958H13.3477ZM7.94773 12.158V20.618H12.3577C14.2417 20.618 15.6397 20.24 16.5517 19.484C17.4757 18.716 17.9377 17.684 17.9377 16.388C17.9377 14.912 17.4997 13.838 16.6237 13.166C15.7477 12.494 14.3857 12.158 12.5377 12.158H7.94773ZM12.5377 9.152C14.1577 9.152 15.5437 9.308 16.6957 9.62C17.8597 9.932 18.8137 10.382 19.5577 10.97C20.3017 11.558 20.8477 12.272 21.1957 13.112C21.5557 13.94 21.7357 14.882 21.7357 15.938C21.7357 16.562 21.6397 17.162 21.4477 17.738C21.2557 18.314 20.9617 18.854 20.5657 19.358C20.1697 19.85 19.6717 20.294 19.0717 20.69C18.4717 21.086 17.7637 21.416 16.9477 21.68C20.7037 22.424 22.5817 24.386 22.5817 27.566C22.5817 28.67 22.3777 29.678 21.9697 30.59C21.5617 31.49 20.9677 32.27 20.1877 32.93C19.4077 33.59 18.4477 34.1 17.3077 34.46C16.1677 34.82 14.8717 35 13.4197 35H4.11373V9.152H12.5377ZM30.0211 8.432V35H26.4931V8.432H30.0211ZM44.8624 26.882C43.4344 26.93 42.2224 27.044 41.2264 27.224C40.2304 27.392 39.4204 27.62 38.7964 27.908C38.1724 28.196 37.7224 28.538 37.4464 28.934C37.1704 29.318 37.0324 29.75 37.0324 30.23C37.0324 30.686 37.1044 31.082 37.2484 31.418C37.4044 31.742 37.6084 32.012 37.8604 32.228C38.1244 32.432 38.4304 32.582 38.7784 32.678C39.1264 32.774 39.5044 32.822 39.9124 32.822C40.4524 32.822 40.9444 32.768 41.3884 32.66C41.8444 32.552 42.2704 32.402 42.6664 32.21C43.0624 32.006 43.4404 31.76 43.8004 31.472C44.1604 31.184 44.5144 30.854 44.8624 30.482V26.882ZM34.5664 19.268C35.5864 18.296 36.6904 17.57 37.8784 17.09C39.0784 16.61 40.3924 16.37 41.8204 16.37C42.8644 16.37 43.7884 16.544 44.5924 16.892C45.3964 17.228 46.0744 17.702 46.6264 18.314C47.1784 18.926 47.5924 19.658 47.8684 20.51C48.1564 21.362 48.3004 22.304 48.3004 23.336V35H46.7344C46.3864 35 46.1224 34.946 45.9424 34.838C45.7624 34.718 45.6184 34.502 45.5104 34.19L45.1324 32.588C44.6644 33.02 44.2024 33.404 43.7464 33.74C43.2904 34.064 42.8104 34.346 42.3064 34.586C41.8144 34.814 41.2864 34.988 40.7224 35.108C40.1584 35.228 39.5344 35.288 38.8504 35.288C38.1304 35.288 37.4524 35.192 36.8164 35C36.1924 34.796 35.6464 34.49 35.1784 34.082C34.7104 33.674 34.3384 33.164 34.0624 32.552C33.7984 31.94 33.6664 31.226 33.6664 30.41C33.6664 29.69 33.8584 29 34.2424 28.34C34.6384 27.668 35.2744 27.068 36.1504 26.54C37.0384 26.012 38.1904 25.58 39.6064 25.244C41.0344 24.908 42.7864 24.716 44.8624 24.668V23.336C44.8624 21.956 44.5684 20.924 43.9804 20.24C43.3924 19.556 42.5284 19.214 41.3884 19.214C40.6204 19.214 39.9724 19.31 39.4444 19.502C38.9284 19.694 38.4784 19.91 38.0944 20.15C37.7224 20.378 37.3924 20.588 37.1044 20.78C36.8284 20.972 36.5404 21.068 36.2404 21.068C36.0004 21.068 35.7904 21.002 35.6104 20.87C35.4424 20.738 35.3044 20.582 35.1964 20.402L34.5664 19.268ZM65.8152 20.132C65.7072 20.264 65.5992 20.372 65.4912 20.456C65.3952 20.528 65.2512 20.564 65.0592 20.564C64.8672 20.564 64.6632 20.492 64.4472 20.348C64.2432 20.192 63.9792 20.03 63.6552 19.862C63.3432 19.682 62.9592 19.52 62.5032 19.376C62.0592 19.22 61.5072 19.142 60.8472 19.142C59.9832 19.142 59.2212 19.298 58.5612 19.61C57.9012 19.922 57.3492 20.366 56.9052 20.942C56.4732 21.518 56.1432 22.22 55.9152 23.048C55.6872 23.876 55.5732 24.806 55.5732 25.838C55.5732 26.906 55.6932 27.86 55.9332 28.7C56.1732 29.528 56.5152 30.23 56.9592 30.806C57.4032 31.37 57.9432 31.802 58.5792 32.102C59.2152 32.39 59.9232 32.534 60.7032 32.534C61.4592 32.534 62.0832 32.444 62.5752 32.264C63.0672 32.072 63.4752 31.868 63.7992 31.652C64.1232 31.436 64.3932 31.238 64.6092 31.058C64.8252 30.866 65.0472 30.77 65.2752 30.77C65.5632 30.77 65.7852 30.878 65.9412 31.094L66.9492 32.39C66.5292 32.906 66.0552 33.344 65.5272 33.704C65.0112 34.064 64.4592 34.358 63.8712 34.586C63.2832 34.814 62.6652 34.982 62.0172 35.09C61.3812 35.198 60.7332 35.252 60.0732 35.252C58.9332 35.252 57.8652 35.042 56.8692 34.622C55.8852 34.202 55.0272 33.59 54.2952 32.786C53.5752 31.982 53.0052 30.998 52.5852 29.834C52.1652 28.658 51.9552 27.326 51.9552 25.838C51.9552 24.482 52.1412 23.228 52.5132 22.076C52.8972 20.924 53.4552 19.934 54.1872 19.106C54.9312 18.266 55.8432 17.612 56.9232 17.144C58.0032 16.664 59.2392 16.424 60.6312 16.424C61.9392 16.424 63.0912 16.634 64.0872 17.054C65.0832 17.474 65.9712 18.068 66.7512 18.836L65.8152 20.132ZM73.7358 8.432V23.966H74.5638C74.8158 23.966 75.0258 23.93 75.1938 23.858C75.3618 23.786 75.5358 23.642 75.7158 23.426L81.1878 17.396C81.3558 17.168 81.5418 17 81.7458 16.892C81.9498 16.772 82.2078 16.712 82.5198 16.712H85.7238L79.2618 23.786C78.9138 24.23 78.5418 24.572 78.1458 24.812C78.3738 24.968 78.5718 25.148 78.7398 25.352C78.9198 25.556 79.0938 25.778 79.2618 26.018L86.1378 35H82.9878C82.6998 35 82.4478 34.952 82.2318 34.856C82.0278 34.76 81.8418 34.586 81.6738 34.334L76.0218 26.99C75.8418 26.714 75.6618 26.54 75.4818 26.468C75.3018 26.384 75.0318 26.342 74.6718 26.342H73.7358V35H70.2258V8.432H73.7358ZM114.187 16.712L108.301 35H105.493C105.157 35 104.929 34.778 104.809 34.334L100.957 22.418C100.861 22.118 100.777 21.824 100.705 21.536C100.633 21.236 100.567 20.936 100.507 20.636C100.399 21.26 100.249 21.866 100.057 22.454L96.1511 34.334C96.0311 34.778 95.7731 35 95.3771 35H92.7131L86.8091 16.712H89.5811C89.8571 16.712 90.0851 16.778 90.2651 16.91C90.4571 17.042 90.5831 17.21 90.6431 17.414L93.9371 28.646C94.0451 29.102 94.1411 29.546 94.2251 29.978C94.3091 30.41 94.3871 30.842 94.4591 31.274C94.5671 30.842 94.6811 30.41 94.8011 29.978C94.9331 29.546 95.0651 29.102 95.1971 28.646L98.8511 17.342C98.9111 17.138 99.0251 16.976 99.1931 16.856C99.3611 16.724 99.5651 16.658 99.8051 16.658H101.335C101.599 16.658 101.815 16.724 101.983 16.856C102.163 16.976 102.283 17.138 102.343 17.342L105.907 28.646C106.039 29.102 106.165 29.552 106.285 29.996C106.405 30.428 106.513 30.866 106.609 31.31C106.681 30.878 106.765 30.446 106.861 30.014C106.957 29.57 107.065 29.114 107.185 28.646L110.533 17.414C110.593 17.21 110.713 17.042 110.893 16.91C111.085 16.778 111.301 16.712 111.541 16.712H114.187ZM128.992 23.822C128.992 23.126 128.89 22.484 128.686 21.896C128.494 21.308 128.206 20.798 127.822 20.366C127.438 19.934 126.97 19.598 126.418 19.358C125.866 19.118 125.23 18.998 124.51 18.998C123.034 18.998 121.87 19.424 121.018 20.276C120.178 21.128 119.644 22.31 119.416 23.822H128.992ZM131.89 32.39C131.458 32.894 130.96 33.332 130.396 33.704C129.832 34.064 129.232 34.358 128.596 34.586C127.96 34.814 127.3 34.982 126.616 35.09C125.944 35.198 125.278 35.252 124.618 35.252C123.358 35.252 122.188 35.042 121.108 34.622C120.04 34.19 119.11 33.566 118.318 32.75C117.538 31.922 116.926 30.902 116.482 29.69C116.05 28.466 115.834 27.062 115.834 25.478C115.834 24.206 116.032 23.024 116.428 21.932C116.824 20.828 117.388 19.868 118.12 19.052C118.864 18.236 119.77 17.594 120.838 17.126C121.906 16.658 123.106 16.424 124.438 16.424C125.554 16.424 126.58 16.61 127.516 16.982C128.464 17.342 129.28 17.87 129.964 18.566C130.648 19.262 131.182 20.12 131.566 21.14C131.962 22.16 132.16 23.324 132.16 24.632C132.16 25.172 132.1 25.538 131.98 25.73C131.86 25.91 131.638 26 131.314 26H119.326C119.362 27.092 119.518 28.046 119.794 28.862C120.07 29.666 120.448 30.338 120.928 30.878C121.42 31.418 122.002 31.82 122.674 32.084C123.346 32.348 124.096 32.48 124.924 32.48C125.704 32.48 126.376 32.39 126.94 32.21C127.516 32.03 128.008 31.838 128.416 31.634C128.836 31.418 129.184 31.22 129.46 31.04C129.748 30.86 130 30.77 130.216 30.77C130.504 30.77 130.726 30.878 130.882 31.094L131.89 32.39ZM139.533 8.432V35H136.005V8.432H139.533ZM148.146 8.432V35H144.618V8.432H148.146ZM172.219 31.958C173.191 31.958 174.019 31.844 174.703 31.616C175.399 31.388 175.963 31.076 176.395 30.68C176.839 30.284 177.163 29.816 177.367 29.276C177.571 28.724 177.673 28.124 177.673 27.476C177.673 26.192 177.229 25.184 176.341 24.452C175.453 23.708 174.079 23.336 172.219 23.336H166.819V31.958H172.219ZM166.819 12.158V20.618H171.229C173.113 20.618 174.511 20.24 175.423 19.484C176.347 18.716 176.809 17.684 176.809 16.388C176.809 14.912 176.371 13.838 175.495 13.166C174.619 12.494 173.257 12.158 171.409 12.158H166.819ZM171.409 9.152C173.029 9.152 174.415 9.308 175.567 9.62C176.731 9.932 177.685 10.382 178.429 10.97C179.173 11.558 179.719 12.272 180.067 13.112C180.427 13.94 180.607 14.882 180.607 15.938C180.607 16.562 180.511 17.162 180.319 17.738C180.127 18.314 179.833 18.854 179.437 19.358C179.041 19.85 178.543 20.294 177.943 20.69C177.343 21.086 176.635 21.416 175.819 21.68C179.575 22.424 181.453 24.386 181.453 27.566C181.453 28.67 181.249 29.678 180.841 30.59C180.433 31.49 179.839 32.27 179.059 32.93C178.279 33.59 177.319 34.1 176.179 34.46C175.039 34.82 173.743 35 172.291 35H162.985V9.152H171.409ZM200.502 16.712V35H198.396C197.916 35 197.604 34.766 197.46 34.298L197.208 32.462C196.812 32.882 196.398 33.266 195.966 33.614C195.534 33.962 195.072 34.262 194.58 34.514C194.088 34.754 193.566 34.94 193.014 35.072C192.462 35.216 191.868 35.288 191.232 35.288C190.224 35.288 189.336 35.12 188.568 34.784C187.812 34.448 187.176 33.98 186.66 33.38C186.144 32.768 185.754 32.036 185.49 31.184C185.226 30.332 185.094 29.39 185.094 28.358V16.712H188.622V28.358C188.622 29.666 188.922 30.686 189.522 31.418C190.122 32.138 191.04 32.498 192.276 32.498C193.176 32.498 194.016 32.288 194.796 31.868C195.576 31.436 196.308 30.848 196.992 30.104V16.712H200.502ZM208.714 20.222C209.302 19.022 210.01 18.08 210.838 17.396C211.666 16.712 212.662 16.37 213.826 16.37C214.222 16.37 214.594 16.418 214.942 16.514C215.302 16.598 215.614 16.73 215.878 16.91L215.644 19.556C215.56 19.88 215.362 20.042 215.05 20.042C214.882 20.042 214.63 20.012 214.294 19.952C213.958 19.88 213.598 19.844 213.214 19.844C212.65 19.844 212.152 19.928 211.72 20.096C211.288 20.252 210.898 20.492 210.55 20.816C210.214 21.128 209.914 21.518 209.65 21.986C209.386 22.442 209.14 22.964 208.912 23.552V35H205.402V16.712H207.418C207.802 16.712 208.06 16.784 208.192 16.928C208.336 17.06 208.438 17.3 208.498 17.648L208.714 20.222ZM224.66 25.874C225.284 25.874 225.83 25.79 226.298 25.622C226.778 25.454 227.174 25.22 227.486 24.92C227.81 24.608 228.05 24.236 228.206 23.804C228.374 23.372 228.458 22.898 228.458 22.382C228.458 21.326 228.134 20.486 227.486 19.862C226.85 19.226 225.908 18.908 224.66 18.908C223.424 18.908 222.482 19.226 221.834 19.862C221.198 20.486 220.88 21.326 220.88 22.382C220.88 22.898 220.958 23.372 221.114 23.804C221.282 24.224 221.522 24.59 221.834 24.902C222.158 25.202 222.554 25.442 223.022 25.622C223.502 25.79 224.048 25.874 224.66 25.874ZM230.258 35.954C230.258 35.522 230.138 35.18 229.898 34.928C229.658 34.664 229.328 34.46 228.908 34.316C228.5 34.16 228.02 34.052 227.468 33.992C226.916 33.92 226.334 33.866 225.722 33.83C225.122 33.794 224.504 33.764 223.868 33.74C223.232 33.704 222.62 33.644 222.032 33.56C221.408 33.872 220.892 34.25 220.484 34.694C220.088 35.138 219.89 35.66 219.89 36.26C219.89 36.644 219.986 37.004 220.178 37.34C220.382 37.676 220.688 37.964 221.096 38.204C221.516 38.456 222.038 38.648 222.662 38.78C223.298 38.924 224.054 38.996 224.93 38.996C225.794 38.996 226.556 38.918 227.216 38.762C227.876 38.618 228.428 38.408 228.872 38.132C229.328 37.868 229.67 37.55 229.898 37.178C230.138 36.806 230.258 36.398 230.258 35.954ZM233.822 17.396V18.71C233.822 19.142 233.552 19.412 233.012 19.52L231.05 19.808C231.218 20.18 231.35 20.576 231.446 20.996C231.542 21.404 231.59 21.836 231.59 22.292C231.59 23.192 231.416 24.008 231.068 24.74C230.72 25.46 230.24 26.078 229.628 26.594C229.016 27.11 228.284 27.506 227.432 27.782C226.592 28.058 225.668 28.196 224.66 28.196C223.832 28.196 223.058 28.106 222.338 27.926C221.978 28.142 221.702 28.382 221.51 28.646C221.33 28.898 221.24 29.15 221.24 29.402C221.24 29.822 221.414 30.134 221.762 30.338C222.122 30.542 222.584 30.692 223.148 30.788C223.724 30.872 224.378 30.926 225.11 30.95C225.854 30.974 226.604 31.016 227.36 31.076C228.128 31.124 228.878 31.22 229.61 31.364C230.354 31.496 231.008 31.718 231.572 32.03C232.148 32.33 232.61 32.75 232.958 33.29C233.318 33.818 233.498 34.508 233.498 35.36C233.498 36.152 233.3 36.92 232.904 37.664C232.52 38.408 231.956 39.068 231.212 39.644C230.468 40.22 229.562 40.682 228.494 41.03C227.426 41.378 226.214 41.552 224.858 41.552C223.502 41.552 222.32 41.42 221.312 41.156C220.316 40.892 219.482 40.538 218.81 40.094C218.15 39.65 217.652 39.134 217.316 38.546C216.992 37.958 216.83 37.346 216.83 36.71C216.83 35.822 217.106 35.072 217.658 34.46C218.21 33.836 218.972 33.35 219.944 33.002C219.416 32.762 218.996 32.438 218.684 32.03C218.372 31.61 218.216 31.058 218.216 30.374C218.216 30.11 218.264 29.84 218.36 29.564C218.456 29.276 218.6 28.994 218.792 28.718C218.996 28.43 219.242 28.16 219.53 27.908C219.83 27.656 220.172 27.428 220.556 27.224C219.656 26.72 218.948 26.054 218.432 25.226C217.916 24.386 217.658 23.408 217.658 22.292C217.658 21.392 217.832 20.582 218.18 19.862C218.528 19.142 219.008 18.524 219.62 18.008C220.244 17.492 220.982 17.096 221.834 16.82C222.698 16.544 223.64 16.406 224.66 16.406C226.244 16.406 227.606 16.736 228.746 17.396H233.822ZM248.875 23.822C248.875 23.126 248.773 22.484 248.569 21.896C248.377 21.308 248.089 20.798 247.705 20.366C247.321 19.934 246.853 19.598 246.301 19.358C245.749 19.118 245.113 18.998 244.393 18.998C242.917 18.998 241.753 19.424 240.901 20.276C240.061 21.128 239.527 22.31 239.299 23.822H248.875ZM251.773 32.39C251.341 32.894 250.843 33.332 250.279 33.704C249.715 34.064 249.115 34.358 248.479 34.586C247.843 34.814 247.183 34.982 246.499 35.09C245.827 35.198 245.161 35.252 244.501 35.252C243.241 35.252 242.071 35.042 240.991 34.622C239.923 34.19 238.993 33.566 238.201 32.75C237.421 31.922 236.809 30.902 236.365 29.69C235.933 28.466 235.717 27.062 235.717 25.478C235.717 24.206 235.915 23.024 236.311 21.932C236.707 20.828 237.271 19.868 238.003 19.052C238.747 18.236 239.653 17.594 240.721 17.126C241.789 16.658 242.989 16.424 244.321 16.424C245.437 16.424 246.463 16.61 247.399 16.982C248.347 17.342 249.163 17.87 249.847 18.566C250.531 19.262 251.065 20.12 251.449 21.14C251.845 22.16 252.043 23.324 252.043 24.632C252.043 25.172 251.983 25.538 251.863 25.73C251.743 25.91 251.521 26 251.197 26H239.209C239.245 27.092 239.401 28.046 239.677 28.862C239.953 29.666 240.331 30.338 240.811 30.878C241.303 31.418 241.885 31.82 242.557 32.084C243.229 32.348 243.979 32.48 244.807 32.48C245.587 32.48 246.259 32.39 246.823 32.21C247.399 32.03 247.891 31.838 248.299 31.634C248.719 31.418 249.067 31.22 249.343 31.04C249.631 30.86 249.883 30.77 250.099 30.77C250.387 30.77 250.609 30.878 250.765 31.094L251.773 32.39ZM259.128 20.222C259.716 19.022 260.424 18.08 261.252 17.396C262.08 16.712 263.076 16.37 264.24 16.37C264.636 16.37 265.008 16.418 265.356 16.514C265.716 16.598 266.028 16.73 266.292 16.91L266.058 19.556C265.974 19.88 265.776 20.042 265.464 20.042C265.296 20.042 265.044 20.012 264.708 19.952C264.372 19.88 264.012 19.844 263.628 19.844C263.064 19.844 262.566 19.928 262.134 20.096C261.702 20.252 261.312 20.492 260.964 20.816C260.628 21.128 260.328 21.518 260.064 21.986C259.8 22.442 259.554 22.964 259.326 23.552V35H255.816V16.712H257.832C258.216 16.712 258.474 16.784 258.606 16.928C258.75 17.06 258.852 17.3 258.912 17.648L259.128 20.222ZM279.676 19.862C279.58 20.018 279.478 20.132 279.37 20.204C279.262 20.264 279.124 20.294 278.956 20.294C278.764 20.294 278.548 20.228 278.308 20.096C278.08 19.964 277.798 19.82 277.462 19.664C277.138 19.508 276.754 19.364 276.31 19.232C275.866 19.1 275.338 19.034 274.726 19.034C274.222 19.034 273.76 19.1 273.34 19.232C272.932 19.352 272.584 19.526 272.296 19.754C272.008 19.97 271.786 20.234 271.63 20.546C271.474 20.846 271.396 21.17 271.396 21.518C271.396 21.974 271.528 22.352 271.792 22.652C272.068 22.952 272.422 23.21 272.854 23.426C273.298 23.642 273.796 23.84 274.348 24.02C274.912 24.188 275.482 24.368 276.058 24.56C276.646 24.752 277.216 24.974 277.768 25.226C278.332 25.466 278.83 25.772 279.262 26.144C279.706 26.504 280.06 26.942 280.324 27.458C280.6 27.974 280.738 28.604 280.738 29.348C280.738 30.2 280.582 30.992 280.27 31.724C279.97 32.444 279.52 33.068 278.92 33.596C278.332 34.124 277.6 34.538 276.724 34.838C275.848 35.138 274.846 35.288 273.718 35.288C272.458 35.288 271.294 35.078 270.226 34.658C269.158 34.238 268.264 33.704 267.544 33.056L268.372 31.706C268.468 31.538 268.588 31.412 268.732 31.328C268.876 31.232 269.068 31.184 269.308 31.184C269.536 31.184 269.77 31.268 270.01 31.436C270.25 31.604 270.538 31.79 270.874 31.994C271.21 32.186 271.618 32.366 272.098 32.534C272.578 32.69 273.178 32.768 273.898 32.768C274.498 32.768 275.02 32.696 275.464 32.552C275.908 32.396 276.274 32.192 276.562 31.94C276.862 31.676 277.084 31.376 277.228 31.04C277.372 30.704 277.444 30.35 277.444 29.978C277.444 29.498 277.306 29.102 277.03 28.79C276.766 28.466 276.412 28.19 275.968 27.962C275.536 27.734 275.038 27.536 274.474 27.368C273.91 27.2 273.334 27.02 272.746 26.828C272.158 26.636 271.582 26.414 271.018 26.162C270.454 25.91 269.95 25.592 269.506 25.208C269.074 24.824 268.72 24.356 268.444 23.804C268.18 23.252 268.048 22.58 268.048 21.788C268.048 21.08 268.192 20.402 268.48 19.754C268.78 19.106 269.206 18.536 269.758 18.044C270.322 17.552 271.012 17.162 271.828 16.874C272.656 16.574 273.598 16.424 274.654 16.424C275.866 16.424 276.958 16.616 277.93 17C278.914 17.384 279.754 17.912 280.45 18.584L279.676 19.862Z" fill="white"/>
<path d="M78.447 57.782C78.587 57.782 78.697 57.824 78.777 57.908C78.857 57.988 78.897 58.092 78.897 58.22V59H73.053V58.562C73.053 58.474 73.071 58.382 73.107 58.286C73.143 58.19 73.201 58.102 73.281 58.022L75.969 55.328C76.197 55.1 76.399 54.882 76.575 54.674C76.755 54.466 76.907 54.258 77.031 54.05C77.159 53.842 77.255 53.632 77.319 53.42C77.387 53.204 77.421 52.978 77.421 52.742C77.421 52.514 77.385 52.314 77.313 52.142C77.245 51.966 77.149 51.822 77.025 51.71C76.905 51.594 76.759 51.508 76.587 51.452C76.419 51.392 76.233 51.362 76.029 51.362C75.833 51.362 75.651 51.39 75.483 51.446C75.319 51.502 75.171 51.58 75.039 51.68C74.911 51.78 74.803 51.9 74.715 52.04C74.631 52.176 74.569 52.326 74.529 52.49C74.469 52.654 74.391 52.764 74.295 52.82C74.203 52.876 74.067 52.888 73.887 52.856L73.209 52.736C73.269 52.328 73.381 51.97 73.545 51.662C73.713 51.354 73.923 51.098 74.175 50.894C74.427 50.686 74.715 50.53 75.039 50.426C75.367 50.318 75.721 50.264 76.101 50.264C76.485 50.264 76.837 50.322 77.157 50.438C77.481 50.55 77.759 50.712 77.991 50.924C78.227 51.132 78.411 51.386 78.543 51.686C78.675 51.986 78.741 52.324 78.741 52.7C78.741 53.02 78.693 53.316 78.597 53.588C78.505 53.86 78.379 54.12 78.219 54.368C78.059 54.616 77.871 54.858 77.655 55.094C77.443 55.326 77.219 55.562 76.983 55.802L74.895 57.938C75.067 57.89 75.239 57.852 75.411 57.824C75.587 57.796 75.753 57.782 75.909 57.782H78.447ZM83.8299 55.808V52.652C83.8299 52.4 83.8479 52.124 83.8839 51.824L80.9799 55.808H83.8299ZM86.1459 55.808V56.552C86.1459 56.624 86.1219 56.686 86.0739 56.738C86.0299 56.79 85.9619 56.816 85.8699 56.816H84.9519V59H83.8299V56.816H80.0919C79.9999 56.816 79.9199 56.79 79.8519 56.738C79.7879 56.682 79.7459 56.614 79.7259 56.534L79.5939 55.874L83.7399 50.354H84.9519V55.808H86.1459ZM88.0728 59.066C88.0128 59.23 87.9168 59.352 87.7848 59.432C87.6528 59.516 87.5188 59.558 87.3828 59.558H86.8368L90.3888 50.582C90.4448 50.434 90.5308 50.32 90.6468 50.24C90.7668 50.16 90.9028 50.12 91.0548 50.12H91.6008L88.0728 59.066ZM98.5064 50.36V50.93C98.5064 51.098 98.4884 51.234 98.4524 51.338C98.4164 51.442 98.3804 51.53 98.3444 51.602L94.9304 58.55C94.8704 58.678 94.7844 58.786 94.6724 58.874C94.5644 58.958 94.4204 59 94.2404 59H93.3104L96.7904 52.166C96.8544 52.042 96.9184 51.93 96.9824 51.83C97.0464 51.73 97.1184 51.634 97.1984 51.542H92.8844C92.8044 51.542 92.7344 51.512 92.6744 51.452C92.6144 51.388 92.5844 51.316 92.5844 51.236V50.36H98.5064ZM104.37 51.494V54.26H107.748V55.394H104.37V59H102.96V50.36H108.348V51.494H104.37ZM113.614 55.76L112.426 52.604C112.33 52.36 112.232 52.05 112.132 51.674C112.088 51.862 112.04 52.036 111.988 52.196C111.936 52.352 111.888 52.49 111.844 52.61L110.656 55.76H113.614ZM116.272 59H115.186C115.062 59 114.962 58.97 114.886 58.91C114.81 58.846 114.752 58.768 114.712 58.676L113.992 56.768H110.272L109.552 58.676C109.52 58.756 109.464 58.83 109.384 58.898C109.304 58.966 109.204 59 109.084 59H107.998L111.424 50.36H112.846L116.272 59ZM121.798 51.836C121.754 51.908 121.708 51.962 121.66 51.998C121.612 52.03 121.552 52.046 121.48 52.046C121.404 52.046 121.318 52.014 121.222 51.95C121.13 51.886 121.014 51.816 120.874 51.74C120.738 51.66 120.576 51.588 120.388 51.524C120.2 51.456 119.976 51.422 119.716 51.422C119.476 51.422 119.264 51.452 119.08 51.512C118.9 51.572 118.748 51.656 118.624 51.764C118.5 51.872 118.406 52 118.342 52.148C118.282 52.292 118.252 52.45 118.252 52.622C118.252 52.842 118.31 53.026 118.426 53.174C118.542 53.318 118.694 53.442 118.882 53.546C119.074 53.65 119.292 53.742 119.536 53.822C119.78 53.898 120.028 53.98 120.28 54.068C120.536 54.156 120.786 54.256 121.03 54.368C121.274 54.48 121.49 54.622 121.678 54.794C121.87 54.966 122.024 55.176 122.14 55.424C122.256 55.672 122.314 55.974 122.314 56.33C122.314 56.714 122.248 57.074 122.116 57.41C121.984 57.746 121.792 58.04 121.54 58.292C121.292 58.54 120.984 58.736 120.616 58.88C120.252 59.024 119.836 59.096 119.368 59.096C119.092 59.096 118.822 59.068 118.558 59.012C118.298 58.96 118.048 58.886 117.808 58.79C117.572 58.69 117.35 58.57 117.142 58.43C116.934 58.29 116.748 58.134 116.584 57.962L116.992 57.29C117.028 57.234 117.074 57.19 117.13 57.158C117.186 57.126 117.248 57.11 117.316 57.11C117.408 57.11 117.51 57.154 117.622 57.242C117.734 57.326 117.868 57.42 118.024 57.524C118.184 57.624 118.376 57.718 118.6 57.806C118.824 57.89 119.092 57.932 119.404 57.932C119.912 57.932 120.304 57.808 120.58 57.56C120.86 57.312 121 56.97 121 56.534C121 56.29 120.942 56.092 120.826 55.94C120.71 55.784 120.556 55.654 120.364 55.55C120.176 55.446 119.96 55.358 119.716 55.286C119.472 55.214 119.224 55.138 118.972 55.058C118.72 54.974 118.472 54.878 118.228 54.77C117.984 54.658 117.766 54.514 117.574 54.338C117.386 54.158 117.234 53.938 117.118 53.678C117.002 53.414 116.944 53.086 116.944 52.694C116.944 52.382 117.004 52.08 117.124 51.788C117.248 51.496 117.426 51.238 117.658 51.014C117.894 50.786 118.184 50.604 118.528 50.468C118.872 50.332 119.264 50.264 119.704 50.264C120.2 50.264 120.654 50.342 121.066 50.498C121.482 50.654 121.84 50.876 122.14 51.164L121.798 51.836ZM129.777 51.53H127.083V59H125.685V51.53H122.985V50.36H129.777V51.53ZM135.014 51.494V54.26H138.392V55.394H135.014V59H133.604V50.36H138.992V51.494H135.014ZM148.425 54.68C148.425 55.32 148.321 55.91 148.113 56.45C147.905 56.99 147.611 57.456 147.231 57.848C146.855 58.236 146.401 58.54 145.869 58.76C145.341 58.98 144.753 59.09 144.105 59.09C143.461 59.09 142.873 58.98 142.341 58.76C141.813 58.54 141.359 58.236 140.979 57.848C140.599 57.456 140.305 56.99 140.097 56.45C139.889 55.91 139.785 55.32 139.785 54.68C139.785 54.04 139.889 53.45 140.097 52.91C140.305 52.37 140.599 51.904 140.979 51.512C141.359 51.12 141.813 50.814 142.341 50.594C142.873 50.374 143.461 50.264 144.105 50.264C144.753 50.264 145.341 50.374 145.869 50.594C146.401 50.814 146.855 51.12 147.231 51.512C147.611 51.904 147.905 52.37 148.113 52.91C148.321 53.45 148.425 54.04 148.425 54.68ZM146.991 54.68C146.991 54.184 146.923 53.738 146.787 53.342C146.655 52.946 146.463 52.61 146.211 52.334C145.963 52.058 145.661 51.846 145.305 51.698C144.949 51.55 144.549 51.476 144.105 51.476C143.665 51.476 143.267 51.55 142.911 51.698C142.555 51.846 142.251 52.058 141.999 52.334C141.747 52.61 141.553 52.946 141.417 53.342C141.281 53.738 141.213 54.184 141.213 54.68C141.213 55.18 141.281 55.628 141.417 56.024C141.553 56.42 141.747 56.756 141.999 57.032C142.251 57.304 142.555 57.514 142.911 57.662C143.267 57.806 143.665 57.878 144.105 57.878C144.549 57.878 144.949 57.806 145.305 57.662C145.661 57.514 145.963 57.304 146.211 57.032C146.463 56.756 146.655 56.42 146.787 56.024C146.923 55.628 146.991 55.18 146.991 54.68ZM158.082 54.68C158.082 55.32 157.978 55.91 157.77 56.45C157.562 56.99 157.268 57.456 156.888 57.848C156.512 58.236 156.058 58.54 155.526 58.76C154.998 58.98 154.41 59.09 153.762 59.09C153.118 59.09 152.53 58.98 151.998 58.76C151.47 58.54 151.016 58.236 150.636 57.848C150.256 57.456 149.962 56.99 149.754 56.45C149.546 55.91 149.442 55.32 149.442 54.68C149.442 54.04 149.546 53.45 149.754 52.91C149.962 52.37 150.256 51.904 150.636 51.512C151.016 51.12 151.47 50.814 151.998 50.594C152.53 50.374 153.118 50.264 153.762 50.264C154.41 50.264 154.998 50.374 155.526 50.594C156.058 50.814 156.512 51.12 156.888 51.512C157.268 51.904 157.562 52.37 157.77 52.91C157.978 53.45 158.082 54.04 158.082 54.68ZM156.648 54.68C156.648 54.184 156.58 53.738 156.444 53.342C156.312 52.946 156.12 52.61 155.868 52.334C155.62 52.058 155.318 51.846 154.962 51.698C154.606 51.55 154.206 51.476 153.762 51.476C153.322 51.476 152.924 51.55 152.568 51.698C152.212 51.846 151.908 52.058 151.656 52.334C151.404 52.61 151.21 52.946 151.074 53.342C150.938 53.738 150.87 54.184 150.87 54.68C150.87 55.18 150.938 55.628 151.074 56.024C151.21 56.42 151.404 56.756 151.656 57.032C151.908 57.304 152.212 57.514 152.568 57.662C152.924 57.806 153.322 57.878 153.762 57.878C154.206 57.878 154.606 57.806 154.962 57.662C155.318 57.514 155.62 57.304 155.868 57.032C156.12 56.756 156.312 56.42 156.444 56.024C156.58 55.628 156.648 55.18 156.648 54.68ZM167.204 54.68C167.204 55.32 167.1 55.906 166.892 56.438C166.684 56.966 166.39 57.42 166.01 57.8C165.634 58.18 165.18 58.476 164.648 58.688C164.12 58.896 163.532 59 162.884 59H159.62V50.36H162.884C163.532 50.36 164.12 50.466 164.648 50.678C165.18 50.886 165.634 51.18 166.01 51.56C166.39 51.94 166.684 52.396 166.892 52.928C167.1 53.456 167.204 54.04 167.204 54.68ZM165.77 54.68C165.77 54.184 165.702 53.738 165.566 53.342C165.434 52.946 165.242 52.612 164.99 52.34C164.742 52.068 164.44 51.86 164.084 51.716C163.728 51.568 163.328 51.494 162.884 51.494H161.03V57.866H162.884C163.328 57.866 163.728 57.794 164.084 57.65C164.44 57.506 164.742 57.298 164.99 57.026C165.242 56.75 165.434 56.416 165.566 56.024C165.702 55.628 165.77 55.18 165.77 54.68ZM179.321 54.68C179.321 55.32 179.217 55.906 179.009 56.438C178.801 56.966 178.507 57.42 178.127 57.8C177.751 58.18 177.297 58.476 176.765 58.688C176.237 58.896 175.649 59 175.001 59H171.737V50.36H175.001C175.649 50.36 176.237 50.466 176.765 50.678C177.297 50.886 177.751 51.18 178.127 51.56C178.507 51.94 178.801 52.396 179.009 52.928C179.217 53.456 179.321 54.04 179.321 54.68ZM177.887 54.68C177.887 54.184 177.819 53.738 177.683 53.342C177.551 52.946 177.359 52.612 177.107 52.34C176.859 52.068 176.557 51.86 176.201 51.716C175.845 51.568 175.445 51.494 175.001 51.494H173.147V57.866H175.001C175.445 57.866 175.845 57.794 176.201 57.65C176.557 57.506 176.859 57.298 177.107 57.026C177.359 56.75 177.551 56.416 177.683 56.024C177.819 55.628 177.887 55.18 177.887 54.68ZM186.26 57.866L186.254 59H180.866V50.36H186.254V51.494H182.276V54.098H185.456V55.196H182.276V57.866H186.26ZM192.772 57.824V59H187.78V50.36H189.184V57.824H192.772ZM195.389 59H193.979V50.36H195.389V59ZM204.666 50.36L201.162 59H199.896L196.392 50.36H197.514C197.638 50.36 197.738 50.392 197.814 50.456C197.89 50.516 197.948 50.592 197.988 50.684L200.214 56.318C200.334 56.634 200.444 56.998 200.544 57.41C200.588 57.206 200.634 57.012 200.682 56.828C200.734 56.644 200.79 56.474 200.85 56.318L203.07 50.684C203.102 50.604 203.158 50.53 203.238 50.462C203.318 50.394 203.418 50.36 203.538 50.36H204.666ZM211.068 57.866L211.062 59H205.674V50.36H211.062V51.494H207.084V54.098H210.264V55.196H207.084V57.866H211.068ZM215.097 54.5C215.417 54.5 215.697 54.462 215.937 54.386C216.177 54.306 216.377 54.196 216.537 54.056C216.697 53.916 216.817 53.75 216.897 53.558C216.977 53.362 217.017 53.146 217.017 52.91C217.017 52.438 216.861 52.078 216.549 51.83C216.237 51.582 215.765 51.458 215.133 51.458H213.993V54.5H215.097ZM219.165 59H217.911C217.663 59 217.483 58.904 217.371 58.712L215.355 55.802C215.287 55.702 215.213 55.63 215.133 55.586C215.053 55.542 214.933 55.52 214.773 55.52H213.993V59H212.589V50.36H215.133C215.701 50.36 216.189 50.418 216.597 50.534C217.009 50.65 217.347 50.816 217.611 51.032C217.875 51.244 218.069 51.5 218.193 51.8C218.321 52.1 218.385 52.434 218.385 52.802C218.385 53.102 218.339 53.382 218.247 53.642C218.159 53.902 218.029 54.138 217.857 54.35C217.689 54.562 217.481 54.746 217.233 54.902C216.985 55.058 216.703 55.18 216.387 55.268C216.559 55.372 216.707 55.518 216.831 55.706L219.165 59ZM223.334 55.616V59H221.936V55.616L218.78 50.36H220.01C220.134 50.36 220.232 50.39 220.304 50.45C220.376 50.51 220.436 50.586 220.484 50.678L222.254 53.774C222.334 53.93 222.406 54.078 222.47 54.218C222.538 54.358 222.598 54.496 222.65 54.632C222.694 54.492 222.748 54.354 222.812 54.218C222.876 54.078 222.948 53.93 223.028 53.774L224.786 50.678C224.826 50.598 224.884 50.526 224.96 50.462C225.036 50.394 225.134 50.36 225.254 50.36H226.49L223.334 55.616Z" fill="white"/>
</svg>
