<svg width="81" height="60" viewBox="0 0 81 60" fill="none" xmlns="http://www.w3.org/2000/svg">
<path fill-rule="evenodd" clip-rule="evenodd" d="M5.04011 0.526897C3.08266 1.1516 1.11396 3.24324 0.474672 5.3778C-0.182534 7.56988 0.429665 10.6855 1.80742 12.1649C3.50441 13.9865 36.869 38.8895 38.4397 39.5063C39.8216 40.0493 40.1925 40.0497 41.5703 39.5079C43.276 38.8374 77.2791 13.4035 78.4326 11.9353C78.8231 11.4385 79.3524 10.162 79.6091 9.0985C80.5042 5.39031 78.3405 1.57584 74.7273 0.493557C72.4627 -0.18532 7.17218 -0.154064 5.04011 0.526897ZM0 34.2941C0 53.2043 0.0904332 53.8611 3.11475 56.885C6.32535 60.0956 5.18847 59.9997 40.0075 59.9997C74.8265 59.9997 73.6896 60.0956 76.9002 56.885C79.9246 53.8611 80.015 53.2043 80.015 34.2941C80.015 25.2819 79.9133 17.9085 79.7887 17.9085C79.6645 17.9085 71.6472 23.8196 61.9729 31.0443C50.066 39.9359 43.8449 44.3263 42.7163 44.6343C40.3138 45.289 36.879 44.8269 35.0232 43.5987C34.1656 43.0311 26.0386 37.0187 16.9636 30.2375C7.88898 23.4566 0.35965 17.9085 0.232126 17.9085C0.104186 17.9085 0 25.2819 0 34.2941Z" fill="#F98F41"/>
</svg>
