<svg width="42" height="60" viewBox="0 0 42 60" fill="none" xmlns="http://www.w3.org/2000/svg">
<path fill-rule="evenodd" clip-rule="evenodd" d="M3.80793 0.390681C2.36446 0.851216 0.866629 2.41966 0.407968 3.95124C-0.135989 5.76589 -0.135989 54.1965 0.407968 56.0112C0.891312 57.6252 2.37946 59.1134 3.99352 59.5967C5.78755 60.1344 35.513 60.1344 37.3071 59.5967C38.9211 59.1134 40.4093 57.6252 40.8926 56.0112C41.4366 54.1965 41.4366 5.76589 40.8926 3.95124C40.4093 2.33718 38.9211 0.84903 37.3071 0.365686C35.6293 -0.137029 5.39044 -0.114534 3.80793 0.390681ZM33.7728 26.2319V44.9783H20.6503H7.52784V26.2319V7.48556H20.6503H33.7728V26.2319ZM25.5797 51.0887C26.4098 51.6701 26.4951 52.9646 25.7571 53.78C25.3006 54.2846 24.6989 54.3515 20.6197 54.3515C16.1993 54.3515 15.9781 54.3215 15.5129 53.6569C14.8845 52.7602 14.8955 51.8898 15.5435 51.1737C15.9978 50.6716 16.5951 50.6022 20.4728 50.6022C23.9609 50.6022 25.031 50.7041 25.5797 51.0887Z" fill="#F98F41"/>
</svg>
