<svg width="70" height="70" viewBox="0 0 70 70" fill="none" xmlns="http://www.w3.org/2000/svg">
<circle cx="35" cy="35" r="35" fill="#F98F41"/>
<path fill-rule="evenodd" clip-rule="evenodd" d="M41.9049 18.1962C37.645 18.911 34.4507 23.1427 34.8191 27.5834L34.9186 28.7825H34.0793C32.7199 28.7825 29.6462 28.1246 27.7175 27.4207C24.157 26.1212 20.5131 23.7625 18.0067 21.1351C17.285 20.3784 16.6106 19.8111 16.5082 19.8744C16.4056 19.9375 16.1567 20.4713 15.9549 21.0602C14.788 24.466 15.6516 27.9891 18.2793 30.5428L19.3102 31.5446L18.3023 31.3814C17.7479 31.2914 16.8631 31.0308 16.3359 30.8021C15.2367 30.325 15.2329 30.3327 15.6311 32.21C15.9662 33.7886 16.7808 35.3669 17.8714 36.5502C18.7551 37.5087 21.0878 38.929 21.7789 38.929C21.9785 38.929 22.1419 39.0264 22.1419 39.1454C22.1419 39.2642 21.3347 39.3912 20.3483 39.4273L18.5546 39.4927L18.986 40.4545C19.9503 42.6049 22.6829 44.7426 24.9604 45.1289C26.7426 45.4308 26.7615 45.4493 25.9349 46.0788C24.8398 46.9129 21.7997 48.2914 20.1127 48.7191C19.3066 48.9236 17.6015 49.1539 16.3235 49.2305L14 49.3703L15.0834 50.0107C20.953 53.4805 30.1592 53.9901 36.9711 51.2222C37.9963 50.8055 39.7124 49.8808 40.7848 49.1672C44.7552 46.5255 47.6377 43.2103 49.7754 38.8279C51.3713 35.5561 52.1141 32.7818 52.2832 29.459L52.4153 26.866L54.0344 25.2876C54.9251 24.4196 55.8746 23.3907 56.1447 23.0011L56.6355 22.2931L55.0029 22.8018C54.105 23.0816 53.0408 23.3722 52.6376 23.448C51.9091 23.5844 51.9125 23.5776 53.213 22.2945C54.3269 21.1953 55.6631 19.1626 55.427 18.9263C55.3871 18.8864 54.696 19.1619 53.8913 19.5385C53.0865 19.915 51.8633 20.3416 51.1731 20.4864C49.9357 20.7459 49.9073 20.74 49.1412 20.0674C48.0627 19.1204 46.5572 18.4343 44.9971 18.1788C43.5232 17.9373 43.4447 17.9378 41.9049 18.1962Z" fill="white"/>
</svg>
